<?xml version="1.0" encoding="UTF-8" standalone="no"?>
<!DOCTYPE svg PUBLIC "-//W3C//DTD SVG 1.1//EN"
 "http://www.w3.org/Graphics/SVG/1.1/DTD/svg11.dtd">
<!-- Generated by graphviz version 2.40.1 (20161225.0304)
 -->
<!-- Title: G Pages: 1 -->
<svg width="1135pt" height="409pt"
 viewBox="7.20 7.20 1128.30 402.06" xmlns="http://www.w3.org/2000/svg" xmlns:xlink="http://www.w3.org/1999/xlink">
<g id="graph0" class="graph" transform="scale(1 1) rotate(0) translate(11.2 398.0568)">
<title>G</title>
<polygon fill="#ffffff" stroke="transparent" points="-4,4 -4,-390.8568 1117.0976,-390.8568 1117.0976,4 -4,4"/>
<!-- start -->
<g id="node1" class="node">
<title>start</title>
</g>
<!-- 139759925960544 -->
<g id="node2" class="node">
<title>139759925960544</title>
<ellipse fill="none" stroke="#000000" stroke-width="2" cx="107.2965" cy="-182.8614" rx="69.0935" ry="69.0935"/>
<text text-anchor="middle" x="107.2965" y="-216.6614" font-family="Times,serif" font-size="14.00" fill="#000000">T &#45;&gt; .F, </text>
<text text-anchor="middle" x="107.2965" y="-201.6614" font-family="Times,serif" font-size="14.00" fill="#000000">T &#45;&gt; .T*F, </text>
<text text-anchor="middle" x="107.2965" y="-186.6614" font-family="Times,serif" font-size="14.00" fill="#000000">F &#45;&gt; .num, </text>
<text text-anchor="middle" x="107.2965" y="-171.6614" font-family="Times,serif" font-size="14.00" fill="#000000">E &#45;&gt; .E+T, </text>
<text text-anchor="middle" x="107.2965" y="-156.6614" font-family="Times,serif" font-size="14.00" fill="#000000">E &#45;&gt; .T, </text>
<text text-anchor="middle" x="107.2965" y="-141.6614" font-family="Times,serif" font-size="14.00" fill="#000000">S&#39; &#45;&gt; .E, </text>
</g>
<!-- start&#45;&gt;139759925960544 -->
<g id="edge13" class="edge">
<title>start&#45;&gt;139759925960544</title>
<path fill="none" stroke="#000000" stroke-dasharray="5,2" d="M1.182,-182.8614C3.8837,-182.8614 14.3434,-182.8614 27.7137,-182.8614"/>
<polygon fill="#000000" stroke="#000000" points="27.8944,-186.3615 37.8944,-182.8614 27.8944,-179.3615 27.8944,-186.3615"/>
</g>
<!-- 139759926002128 -->
<g id="node3" class="node">
<title>139759926002128</title>
<ellipse fill="none" stroke="#000000" stroke-width="2" cx="1061.1022" cy="-334.8614" rx="51.9908" ry="51.9908"/>
<text text-anchor="middle" x="1061.1022" y="-331.1614" font-family="Times,serif" font-size="14.00" fill="#000000">F &#45;&gt; num., </text>
</g>
<!-- 139759925960544&#45;&gt;139759926002128 -->
<g id="edge1" class="edge">
<title>139759925960544&#45;&gt;139759926002128</title>
<path fill="none" stroke="#000000" d="M135.5479,-246.1665C163.646,-298.3616 212.19,-363.8614 278.8686,-363.8614 278.8686,-363.8614 278.8686,-363.8614 891.5382,-363.8614 928.0542,-363.8614 968.3686,-357.2463 1000.5236,-350.3348"/>
<polygon fill="#000000" stroke="#000000" points="1001.6556,-353.669 1010.6616,-348.0885 1000.1412,-346.8347 1001.6556,-353.669"/>
<text text-anchor="middle" x="628.9184" y="-367.6614" font-family="Times,serif" font-size="14.00" fill="#000000">num</text>
</g>
<!-- 139759926002296 -->
<g id="node4" class="node">
<title>139759926002296</title>
<ellipse fill="none" stroke="#000000" stroke-width="2" cx="278.8686" cy="-228.8614" rx="57.0522" ry="57.0522"/>
<text text-anchor="middle" x="278.8686" y="-232.6614" font-family="Times,serif" font-size="14.00" fill="#000000">E &#45;&gt; E.+T, </text>
<text text-anchor="middle" x="278.8686" y="-217.6614" font-family="Times,serif" font-size="14.00" fill="#000000">S&#39; &#45;&gt; E., </text>
</g>
<!-- 139759925960544&#45;&gt;139759926002296 -->
<g id="edge9" class="edge">
<title>139759925960544&#45;&gt;139759926002296</title>
<path fill="none" stroke="#000000" d="M174.6139,-200.9098C187.3552,-204.3259 200.6672,-207.895 213.352,-211.2959"/>
<polygon fill="#000000" stroke="#000000" points="212.8024,-214.7721 223.3677,-213.9811 214.6152,-208.0108 212.8024,-214.7721"/>
<text text-anchor="middle" x="199.0929" y="-212.6614" font-family="Times,serif" font-size="14.00" fill="#000000">E</text>
</g>
<!-- 139759926002576 -->
<g id="node9" class="node">
<title>139759926002576</title>
<ellipse fill="none" stroke="#000000" stroke-width="2" cx="716.694" cy="-123.8614" rx="41.6928" ry="41.6928"/>
<text text-anchor="middle" x="716.694" y="-120.1614" font-family="Times,serif" font-size="14.00" fill="#000000">T &#45;&gt; F., </text>
</g>
<!-- 139759925960544&#45;&gt;139759926002576 -->
<g id="edge12" class="edge">
<title>139759925960544&#45;&gt;139759926002576</title>
<path fill="none" stroke="#000000" d="M175.4321,-169.851C190.5876,-167.2611 206.6041,-164.7589 221.5929,-162.8614 382.452,-142.4984 574.1465,-131.0071 664.5714,-126.3417"/>
<polygon fill="#000000" stroke="#000000" points="665.0187,-129.8235 674.8278,-125.8195 664.6627,-122.8326 665.0187,-129.8235"/>
<text text-anchor="middle" x="410.0057" y="-152.6614" font-family="Times,serif" font-size="14.00" fill="#000000">F</text>
</g>
<!-- 139759926002464 -->
<g id="node10" class="node">
<title>139759926002464</title>
<ellipse fill="none" stroke="#000000" stroke-width="2" cx="410.0057" cy="-55.8614" rx="55.7232" ry="55.7232"/>
<text text-anchor="middle" x="410.0057" y="-59.6614" font-family="Times,serif" font-size="14.00" fill="#000000">T &#45;&gt; T.*F, </text>
<text text-anchor="middle" x="410.0057" y="-44.6614" font-family="Times,serif" font-size="14.00" fill="#000000">E &#45;&gt; T., </text>
</g>
<!-- 139759925960544&#45;&gt;139759926002464 -->
<g id="edge11" class="edge">
<title>139759925960544&#45;&gt;139759926002464</title>
<path fill="none" stroke="#000000" d="M158.3121,-135.3956C169.6478,-126.6089 182.0435,-118.2136 194.5929,-111.8614 241.9303,-87.9006 300.4564,-73.533 344.5518,-65.3608"/>
<polygon fill="#000000" stroke="#000000" points="345.3562,-68.7725 354.5814,-63.5622 344.1206,-61.8824 345.3562,-68.7725"/>
<text text-anchor="middle" x="199.0929" y="-115.6614" font-family="Times,serif" font-size="14.00" fill="#000000">T</text>
</g>
<!-- 139759926002968 -->
<g id="node5" class="node">
<title>139759926002968</title>
<ellipse fill="none" stroke="#000000" stroke-width="2" cx="541.1427" cy="-236.8614" rx="57.0522" ry="57.0522"/>
<text text-anchor="middle" x="541.1427" y="-255.6614" font-family="Times,serif" font-size="14.00" fill="#000000">T &#45;&gt; .F, </text>
<text text-anchor="middle" x="541.1427" y="-240.6614" font-family="Times,serif" font-size="14.00" fill="#000000">T &#45;&gt; .T*F, </text>
<text text-anchor="middle" x="541.1427" y="-225.6614" font-family="Times,serif" font-size="14.00" fill="#000000">F &#45;&gt; .num, </text>
<text text-anchor="middle" x="541.1427" y="-210.6614" font-family="Times,serif" font-size="14.00" fill="#000000">E &#45;&gt; E+.T, </text>
</g>
<!-- 139759926002296&#45;&gt;139759926002968 -->
<g id="edge8" class="edge">
<title>139759926002296&#45;&gt;139759926002968</title>
<path fill="none" stroke="#000000" d="M336.4258,-230.6171C376.824,-231.8493 430.9967,-233.5017 473.4674,-234.7972"/>
<polygon fill="#000000" stroke="#000000" points="473.6177,-238.3033 483.7198,-235.1099 473.8312,-231.3065 473.6177,-238.3033"/>
<text text-anchor="middle" x="410.0057" y="-238.6614" font-family="Times,serif" font-size="14.00" fill="#000000">+</text>
</g>
<!-- 139759926002968&#45;&gt;139759926002128 -->
<g id="edge2" class="edge">
<title>139759926002968&#45;&gt;139759926002128</title>
<path fill="none" stroke="#000000" d="M587.3735,-271.0282C608.3064,-284.6494 634.0177,-298.9485 659.4184,-306.8614 720.9166,-326.0196 902.0283,-332.1049 998.674,-334.0109"/>
<polygon fill="#000000" stroke="#000000" points="998.8281,-337.5143 1008.8922,-334.203 998.9598,-330.5156 998.8281,-337.5143"/>
<text text-anchor="middle" x="804.4697" y="-330.6614" font-family="Times,serif" font-size="14.00" fill="#000000">num</text>
</g>
<!-- 139759926003304 -->
<g id="node6" class="node">
<title>139759926003304</title>
<ellipse fill="none" stroke="#000000" stroke-width="2" cx="716.694" cy="-240.8614" rx="57.0522" ry="57.0522"/>
<text text-anchor="middle" x="716.694" y="-244.6614" font-family="Times,serif" font-size="14.00" fill="#000000">T &#45;&gt; T.*F, </text>
<text text-anchor="middle" x="716.694" y="-229.6614" font-family="Times,serif" font-size="14.00" fill="#000000">E &#45;&gt; E+T., </text>
</g>
<!-- 139759926002968&#45;&gt;139759926003304 -->
<g id="edge6" class="edge">
<title>139759926002968&#45;&gt;139759926003304</title>
<path fill="none" stroke="#000000" d="M598.6248,-238.1712C614.7727,-238.5391 632.4796,-238.9426 649.1558,-239.3226"/>
<polygon fill="#000000" stroke="#000000" points="649.3056,-242.8268 659.3828,-239.5556 649.4652,-235.8286 649.3056,-242.8268"/>
<text text-anchor="middle" x="628.9184" y="-243.6614" font-family="Times,serif" font-size="14.00" fill="#000000">T</text>
</g>
<!-- 139759926002968&#45;&gt;139759926002576 -->
<g id="edge7" class="edge">
<title>139759926002968&#45;&gt;139759926002576</title>
<path fill="none" stroke="#000000" d="M589.5776,-205.6846C615.6328,-188.9132 647.5192,-168.3883 672.8379,-152.091"/>
<polygon fill="#000000" stroke="#000000" points="674.985,-154.8714 681.4992,-146.5159 671.1962,-148.9854 674.985,-154.8714"/>
<text text-anchor="middle" x="628.9184" y="-191.6614" font-family="Times,serif" font-size="14.00" fill="#000000">F</text>
</g>
<!-- 139759926002688 -->
<g id="node7" class="node">
<title>139759926002688</title>
<ellipse fill="none" stroke="#000000" stroke-width="2" cx="891.5382" cy="-231.8614" rx="56.6372" ry="56.6372"/>
<text text-anchor="middle" x="891.5382" y="-235.6614" font-family="Times,serif" font-size="14.00" fill="#000000">T &#45;&gt; T*.F, </text>
<text text-anchor="middle" x="891.5382" y="-220.6614" font-family="Times,serif" font-size="14.00" fill="#000000">F &#45;&gt; .num, </text>
</g>
<!-- 139759926003304&#45;&gt;139759926002688 -->
<g id="edge5" class="edge">
<title>139759926003304&#45;&gt;139759926002688</title>
<path fill="none" stroke="#000000" d="M773.9446,-237.9145C790.1099,-237.0824 807.8439,-236.1695 824.5275,-235.3108"/>
<polygon fill="#000000" stroke="#000000" points="824.9494,-238.7938 834.7562,-234.7843 824.5895,-231.803 824.9494,-238.7938"/>
<text text-anchor="middle" x="804.4697" y="-241.6614" font-family="Times,serif" font-size="14.00" fill="#000000">*</text>
</g>
<!-- 139759926002688&#45;&gt;139759926002128 -->
<g id="edge3" class="edge">
<title>139759926002688&#45;&gt;139759926002128</title>
<path fill="none" stroke="#000000" d="M940.1285,-261.3771C961.2875,-274.23 986.1489,-289.3318 1007.8126,-302.4912"/>
<polygon fill="#000000" stroke="#000000" points="1006.203,-305.6085 1016.5668,-307.8089 1009.8372,-299.6258 1006.203,-305.6085"/>
<text text-anchor="middle" x="978.6068" y="-292.6614" font-family="Times,serif" font-size="14.00" fill="#000000">num</text>
</g>
<!-- 139759926002856 -->
<g id="node8" class="node">
<title>139759926002856</title>
<ellipse fill="none" stroke="#000000" stroke-width="2" cx="1061.1022" cy="-213.8614" rx="51.1914" ry="51.1914"/>
<text text-anchor="middle" x="1061.1022" y="-210.1614" font-family="Times,serif" font-size="14.00" fill="#000000">T &#45;&gt; T*F., </text>
</g>
<!-- 139759926002688&#45;&gt;139759926002856 -->
<g id="edge4" class="edge">
<title>139759926002688&#45;&gt;139759926002856</title>
<path fill="none" stroke="#000000" d="M948.0006,-225.8677C964.5952,-224.1061 982.8252,-222.1709 999.712,-220.3783"/>
<polygon fill="#000000" stroke="#000000" points="1000.4516,-223.8195 1010.0262,-219.2834 999.7126,-216.8586 1000.4516,-223.8195"/>
<text text-anchor="middle" x="978.6068" y="-228.6614" font-family="Times,serif" font-size="14.00" fill="#000000">F</text>
</g>
<!-- 139759926002464&#45;&gt;139759926002688 -->
<g id="edge10" class="edge">
<title>139759926002464&#45;&gt;139759926002688</title>
<path fill="none" stroke="#000000" d="M465.0111,-44.5484C539.7888,-32.1217 675.4786,-20.2786 773.9697,-72.8614 813.8938,-94.1763 843.8763,-135.702 863.5692,-170.9711"/>
<polygon fill="#000000" stroke="#000000" points="860.5075,-172.6675 868.3539,-179.7868 866.6598,-169.3283 860.5075,-172.6675"/>
<text text-anchor="middle" x="628.9184" y="-40.6614" font-family="Times,serif" font-size="14.00" fill="#000000">*</text>
</g>
</g>
</svg>
