<?xml version="1.0" encoding="UTF-8" standalone="no"?>
<!DOCTYPE svg PUBLIC "-//W3C//DTD SVG 1.1//EN"
 "http://www.w3.org/Graphics/SVG/1.1/DTD/svg11.dtd">
<!-- Generated by graphviz version 2.40.1 (20161225.0304)
 -->
<!-- Title: G Pages: 1 -->
<svg width="917pt" height="640pt"
 viewBox="7.20 7.20 910.14 632.79" xmlns="http://www.w3.org/2000/svg" xmlns:xlink="http://www.w3.org/1999/xlink">
<g id="graph0" class="graph" transform="scale(1 1) rotate(0) translate(11.2 628.7859)">
<title>G</title>
<polygon fill="#ffffff" stroke="transparent" points="-4,4 -4,-621.5859 898.9352,-621.5859 898.9352,4 -4,4"/>
<!-- start -->
<g id="node1" class="node">
<title>start</title>
</g>
<!-- 140168597910248 -->
<g id="node2" class="node">
<title>140168597910248</title>
<ellipse fill="none" stroke="#000000" stroke-width="2" cx="120.0244" cy="-218.8437" rx="82.0488" ry="82.0488"/>
<text text-anchor="middle" x="120.0244" y="-245.1437" font-family="Times,serif" font-size="14.00" fill="#000000">S&#39; &#45;&gt; .E, {&#39;$&#39;}</text>
<text text-anchor="middle" x="120.0244" y="-230.1437" font-family="Times,serif" font-size="14.00" fill="#000000">E &#45;&gt; .int, {&#39;$&#39;}</text>
<text text-anchor="middle" x="120.0244" y="-215.1437" font-family="Times,serif" font-size="14.00" fill="#000000">E &#45;&gt; .A=A, {&#39;$&#39;}</text>
<text text-anchor="middle" x="120.0244" y="-200.1437" font-family="Times,serif" font-size="14.00" fill="#000000">A &#45;&gt; .int+A, {&#39;=&#39;}</text>
<text text-anchor="middle" x="120.0244" y="-185.1437" font-family="Times,serif" font-size="14.00" fill="#000000">A &#45;&gt; .int, {&#39;=&#39;}</text>
</g>
<!-- start&#45;&gt;140168597910248 -->
<g id="edge11" class="edge">
<title>start&#45;&gt;140168597910248</title>
<path fill="none" stroke="#000000" stroke-dasharray="5,2" d="M1.2633,-218.8437C4.063,-218.8437 14.3066,-218.8437 27.6875,-218.8437"/>
<polygon fill="#000000" stroke="#000000" points="27.9238,-222.3438 37.9238,-218.8437 27.9238,-215.3438 27.9238,-222.3438"/>
</g>
<!-- 140168597910192 -->
<g id="node3" class="node">
<title>140168597910192</title>
<ellipse fill="none" stroke="#000000" stroke-width="2" cx="335.0732" cy="-377.8437" rx="82.0488" ry="82.0488"/>
<text text-anchor="middle" x="335.0732" y="-389.1437" font-family="Times,serif" font-size="14.00" fill="#000000">E &#45;&gt; int., {&#39;$&#39;}</text>
<text text-anchor="middle" x="335.0732" y="-374.1437" font-family="Times,serif" font-size="14.00" fill="#000000">A &#45;&gt; int., {&#39;=&#39;}</text>
<text text-anchor="middle" x="335.0732" y="-359.1437" font-family="Times,serif" font-size="14.00" fill="#000000">A &#45;&gt; int.+A, {&#39;=&#39;}</text>
</g>
<!-- 140168597910248&#45;&gt;140168597910192 -->
<g id="edge5" class="edge">
<title>140168597910248&#45;&gt;140168597910192</title>
<path fill="none" stroke="#000000" d="M186.0076,-267.6295C209.6349,-285.0988 236.4245,-304.9062 260.7118,-322.8634"/>
<polygon fill="#000000" stroke="#000000" points="258.7226,-325.7454 268.8443,-328.8762 262.8842,-320.1168 258.7226,-325.7454"/>
<text text-anchor="middle" x="227.5488" y="-307.6437" font-family="Times,serif" font-size="14.00" fill="#000000">int</text>
</g>
<!-- 140168597910304 -->
<g id="node7" class="node">
<title>140168597910304</title>
<ellipse fill="none" stroke="#000000" stroke-width="2" cx="335.0732" cy="-218.8437" rx="59.2899" ry="59.2899"/>
<text text-anchor="middle" x="335.0732" y="-215.1437" font-family="Times,serif" font-size="14.00" fill="#000000">S&#39; &#45;&gt; E., {&#39;$&#39;}</text>
</g>
<!-- 140168597910248&#45;&gt;140168597910304 -->
<g id="edge6" class="edge">
<title>140168597910248&#45;&gt;140168597910304</title>
<path fill="none" stroke="#000000" d="M202.2456,-218.8437C223.1412,-218.8437 245.3885,-218.8437 265.5815,-218.8437"/>
<polygon fill="#000000" stroke="#000000" points="265.624,-222.3438 275.6239,-218.8437 265.6239,-215.3438 265.624,-222.3438"/>
<text text-anchor="middle" x="227.5488" y="-222.6437" font-family="Times,serif" font-size="14.00" fill="#000000">E</text>
</g>
<!-- 140168597909968 -->
<g id="node8" class="node">
<title>140168597909968</title>
<ellipse fill="none" stroke="#000000" stroke-width="2" cx="335.0732" cy="-70.8437" rx="70.6878" ry="70.6878"/>
<text text-anchor="middle" x="335.0732" y="-67.1437" font-family="Times,serif" font-size="14.00" fill="#000000">E &#45;&gt; A.=A, {&#39;$&#39;}</text>
</g>
<!-- 140168597910248&#45;&gt;140168597909968 -->
<g id="edge10" class="edge">
<title>140168597910248&#45;&gt;140168597909968</title>
<path fill="none" stroke="#000000" d="M187.772,-172.2187C213.3232,-154.634 242.3629,-134.6484 267.8647,-117.0977"/>
<polygon fill="#000000" stroke="#000000" points="270.1139,-119.7985 276.3673,-111.246 266.1454,-114.0322 270.1139,-119.7985"/>
<text text-anchor="middle" x="227.5488" y="-153.6437" font-family="Times,serif" font-size="14.00" fill="#000000">A</text>
</g>
<!-- 140168597911704 -->
<g id="node4" class="node">
<title>140168597911704</title>
<ellipse fill="none" stroke="#000000" stroke-width="2" cx="557.557" cy="-373.8437" rx="95.4188" ry="95.4188"/>
<text text-anchor="middle" x="557.557" y="-385.1437" font-family="Times,serif" font-size="14.00" fill="#000000">A &#45;&gt; .int, {&#39;=&#39;, &#39;$&#39;}</text>
<text text-anchor="middle" x="557.557" y="-370.1437" font-family="Times,serif" font-size="14.00" fill="#000000">A &#45;&gt; .int+A, {&#39;=&#39;, &#39;$&#39;}</text>
<text text-anchor="middle" x="557.557" y="-355.1437" font-family="Times,serif" font-size="14.00" fill="#000000">A &#45;&gt; int+.A, {&#39;=&#39;, &#39;$&#39;}</text>
</g>
<!-- 140168597910192&#45;&gt;140168597911704 -->
<g id="edge4" class="edge">
<title>140168597910192&#45;&gt;140168597911704</title>
<path fill="none" stroke="#000000" d="M417.2858,-376.3656C428.4873,-376.1642 440.111,-375.9553 451.6577,-375.7477"/>
<polygon fill="#000000" stroke="#000000" points="451.8371,-379.2451 461.7725,-375.5658 451.7112,-372.2462 451.8371,-379.2451"/>
<text text-anchor="middle" x="439.5975" y="-379.6437" font-family="Times,serif" font-size="14.00" fill="#000000">+</text>
</g>
<!-- 140168597911088 -->
<g id="node5" class="node">
<title>140168597911088</title>
<ellipse fill="none" stroke="#000000" stroke-width="2" cx="799.4758" cy="-328.8437" rx="95.4188" ry="95.4188"/>
<text text-anchor="middle" x="799.4758" y="-332.6437" font-family="Times,serif" font-size="14.00" fill="#000000">A &#45;&gt; int.+A, {&#39;=&#39;, &#39;$&#39;}</text>
<text text-anchor="middle" x="799.4758" y="-317.6437" font-family="Times,serif" font-size="14.00" fill="#000000">A &#45;&gt; int., {&#39;=&#39;, &#39;$&#39;}</text>
</g>
<!-- 140168597911704&#45;&gt;140168597911088 -->
<g id="edge2" class="edge">
<title>140168597911704&#45;&gt;140168597911088</title>
<path fill="none" stroke="#000000" d="M645.8964,-337.0446C654.2805,-334.5637 662.7403,-332.4261 671.0164,-330.8437 678.3281,-329.4457 685.9168,-328.3783 693.5858,-327.5789"/>
<polygon fill="#000000" stroke="#000000" points="694.0478,-331.0517 703.6974,-326.6773 693.426,-324.0794 694.0478,-331.0517"/>
<text text-anchor="middle" x="678.5164" y="-334.6437" font-family="Times,serif" font-size="14.00" fill="#000000">int</text>
</g>
<!-- 140168597911984 -->
<g id="node6" class="node">
<title>140168597911984</title>
<ellipse fill="none" stroke="#000000" stroke-width="2" cx="799.4758" cy="-529.8437" rx="87.9851" ry="87.9851"/>
<text text-anchor="middle" x="799.4758" y="-526.1437" font-family="Times,serif" font-size="14.00" fill="#000000">A &#45;&gt; int+A., {&#39;=&#39;, &#39;$&#39;}</text>
</g>
<!-- 140168597911704&#45;&gt;140168597911984 -->
<g id="edge3" class="edge">
<title>140168597911704&#45;&gt;140168597911984</title>
<path fill="none" stroke="#000000" d="M638.1124,-425.7895C663.4279,-442.114 691.411,-460.1587 716.8665,-476.5736"/>
<polygon fill="#000000" stroke="#000000" points="715.0939,-479.5951 725.3949,-482.0731 718.8875,-473.7122 715.0939,-479.5951"/>
<text text-anchor="middle" x="678.5164" y="-459.6437" font-family="Times,serif" font-size="14.00" fill="#000000">A</text>
</g>
<!-- 140168597911088&#45;&gt;140168597911704 -->
<g id="edge1" class="edge">
<title>140168597911088&#45;&gt;140168597911704</title>
<path fill="none" stroke="#000000" d="M705.2516,-346.3706C690.8907,-349.0419 676.0004,-351.8117 661.4467,-354.5189"/>
<polygon fill="#000000" stroke="#000000" points="660.6266,-351.1113 651.4354,-356.3811 661.9068,-357.9933 660.6266,-351.1113"/>
<text text-anchor="middle" x="678.5164" y="-355.6437" font-family="Times,serif" font-size="14.00" fill="#000000">+</text>
</g>
<!-- 140168597910976 -->
<g id="node9" class="node">
<title>140168597910976</title>
<ellipse fill="none" stroke="#000000" stroke-width="2" cx="557.557" cy="-133.8437" rx="81.135" ry="81.135"/>
<text text-anchor="middle" x="557.557" y="-145.1437" font-family="Times,serif" font-size="14.00" fill="#000000">E &#45;&gt; A=.A, {&#39;$&#39;}</text>
<text text-anchor="middle" x="557.557" y="-130.1437" font-family="Times,serif" font-size="14.00" fill="#000000">A &#45;&gt; .int+A, {&#39;$&#39;}</text>
<text text-anchor="middle" x="557.557" y="-115.1437" font-family="Times,serif" font-size="14.00" fill="#000000">A &#45;&gt; .int, {&#39;$&#39;}</text>
</g>
<!-- 140168597909968&#45;&gt;140168597910976 -->
<g id="edge9" class="edge">
<title>140168597909968&#45;&gt;140168597910976</title>
<path fill="none" stroke="#000000" d="M403.3376,-90.1739C424.2562,-96.0974 447.5706,-102.6992 469.6082,-108.9396"/>
<polygon fill="#000000" stroke="#000000" points="468.7206,-112.3258 479.2959,-111.6828 470.6279,-105.5906 468.7206,-112.3258"/>
<text text-anchor="middle" x="439.5975" y="-104.6437" font-family="Times,serif" font-size="14.00" fill="#000000">=</text>
</g>
<!-- 140168597910976&#45;&gt;140168597911088 -->
<g id="edge7" class="edge">
<title>140168597910976&#45;&gt;140168597911088</title>
<path fill="none" stroke="#000000" d="M621.1183,-185.0777C650.414,-208.6916 685.5574,-237.0191 716.8743,-262.2623"/>
<polygon fill="#000000" stroke="#000000" points="714.7658,-265.0582 724.7479,-268.6089 719.1588,-259.6082 714.7658,-265.0582"/>
<text text-anchor="middle" x="678.5164" y="-241.6437" font-family="Times,serif" font-size="14.00" fill="#000000">int</text>
</g>
<!-- 140168597911312 -->
<g id="node10" class="node">
<title>140168597911312</title>
<ellipse fill="none" stroke="#000000" stroke-width="2" cx="799.4758" cy="-133.8437" rx="70.6878" ry="70.6878"/>
<text text-anchor="middle" x="799.4758" y="-130.1437" font-family="Times,serif" font-size="14.00" fill="#000000">E &#45;&gt; A=A., {&#39;$&#39;}</text>
</g>
<!-- 140168597910976&#45;&gt;140168597911312 -->
<g id="edge8" class="edge">
<title>140168597910976&#45;&gt;140168597911312</title>
<path fill="none" stroke="#000000" d="M639.1224,-133.8437C664.6737,-133.8437 692.8578,-133.8437 718.3768,-133.8437"/>
<polygon fill="#000000" stroke="#000000" points="718.3861,-137.3438 728.386,-133.8437 718.386,-130.3438 718.3861,-137.3438"/>
<text text-anchor="middle" x="678.5164" y="-137.6437" font-family="Times,serif" font-size="14.00" fill="#000000">A</text>
</g>
</g>
</svg>
