<?xml version="1.0" encoding="UTF-8" standalone="no"?>
<!DOCTYPE svg PUBLIC "-//W3C//DTD SVG 1.1//EN"
 "http://www.w3.org/Graphics/SVG/1.1/DTD/svg11.dtd">
<!-- Generated by graphviz version 2.40.1 (20161225.0304)
 -->
<!-- Title: G Pages: 1 -->
<svg width="1273pt" height="695pt"
 viewBox="7.20 7.20 1265.52 688.07" xmlns="http://www.w3.org/2000/svg" xmlns:xlink="http://www.w3.org/1999/xlink">
<g id="graph0" class="graph" transform="scale(1 1) rotate(0) translate(11.2 684.0681)">
<title>G</title>
<polygon fill="#ffffff" stroke="transparent" points="-4,4 -4,-676.8681 1254.3164,-676.8681 1254.3164,4 -4,4"/>
<!-- start -->
<g id="node1" class="node">
<title>start</title>
</g>
<!-- 140168598419888 -->
<g id="node2" class="node">
<title>140168598419888</title>
<ellipse fill="none" stroke="#000000" stroke-width="2" cx="120.0244" cy="-392.8437" rx="82.0488" ry="82.0488"/>
<text text-anchor="middle" x="120.0244" y="-419.1437" font-family="Times,serif" font-size="14.00" fill="#000000">E &#45;&gt; .int, {&#39;$&#39;}</text>
<text text-anchor="middle" x="120.0244" y="-404.1437" font-family="Times,serif" font-size="14.00" fill="#000000">E &#45;&gt; .A=A, {&#39;$&#39;}</text>
<text text-anchor="middle" x="120.0244" y="-389.1437" font-family="Times,serif" font-size="14.00" fill="#000000">S&#39; &#45;&gt; .E, {&#39;$&#39;}</text>
<text text-anchor="middle" x="120.0244" y="-374.1437" font-family="Times,serif" font-size="14.00" fill="#000000">A &#45;&gt; .int+A, {&#39;=&#39;}</text>
<text text-anchor="middle" x="120.0244" y="-359.1437" font-family="Times,serif" font-size="14.00" fill="#000000">A &#45;&gt; .int, {&#39;=&#39;}</text>
</g>
<!-- start&#45;&gt;140168598419888 -->
<g id="edge14" class="edge">
<title>start&#45;&gt;140168598419888</title>
<path fill="none" stroke="#000000" stroke-dasharray="5,2" d="M1.2633,-392.8437C4.063,-392.8437 14.3066,-392.8437 27.6875,-392.8437"/>
<polygon fill="#000000" stroke="#000000" points="27.9238,-396.3438 37.9238,-392.8437 27.9238,-389.3438 27.9238,-396.3438"/>
</g>
<!-- 140168598419328 -->
<g id="node3" class="node">
<title>140168598419328</title>
<ellipse fill="none" stroke="#000000" stroke-width="2" cx="335.0732" cy="-551.8437" rx="82.0488" ry="82.0488"/>
<text text-anchor="middle" x="335.0732" y="-563.1437" font-family="Times,serif" font-size="14.00" fill="#000000">E &#45;&gt; int., {&#39;$&#39;}</text>
<text text-anchor="middle" x="335.0732" y="-548.1437" font-family="Times,serif" font-size="14.00" fill="#000000">A &#45;&gt; int., {&#39;=&#39;}</text>
<text text-anchor="middle" x="335.0732" y="-533.1437" font-family="Times,serif" font-size="14.00" fill="#000000">A &#45;&gt; int.+A, {&#39;=&#39;}</text>
</g>
<!-- 140168598419888&#45;&gt;140168598419328 -->
<g id="edge5" class="edge">
<title>140168598419888&#45;&gt;140168598419328</title>
<path fill="none" stroke="#000000" d="M186.0076,-441.6295C209.6349,-459.0988 236.4245,-478.9062 260.7118,-496.8634"/>
<polygon fill="#000000" stroke="#000000" points="258.7226,-499.7454 268.8443,-502.8762 262.8842,-494.1168 258.7226,-499.7454"/>
<text text-anchor="middle" x="227.5488" y="-480.6437" font-family="Times,serif" font-size="14.00" fill="#000000">int</text>
</g>
<!-- 140168598419720 -->
<g id="node7" class="node">
<title>140168598419720</title>
<ellipse fill="none" stroke="#000000" stroke-width="2" cx="335.0732" cy="-392.8437" rx="59.2899" ry="59.2899"/>
<text text-anchor="middle" x="335.0732" y="-389.1437" font-family="Times,serif" font-size="14.00" fill="#000000">S&#39; &#45;&gt; E., {&#39;$&#39;}</text>
</g>
<!-- 140168598419888&#45;&gt;140168598419720 -->
<g id="edge6" class="edge">
<title>140168598419888&#45;&gt;140168598419720</title>
<path fill="none" stroke="#000000" d="M202.2456,-392.8437C223.1412,-392.8437 245.3885,-392.8437 265.5815,-392.8437"/>
<polygon fill="#000000" stroke="#000000" points="265.624,-396.3438 275.6239,-392.8437 265.6239,-389.3438 265.624,-396.3438"/>
<text text-anchor="middle" x="227.5488" y="-396.6437" font-family="Times,serif" font-size="14.00" fill="#000000">E</text>
</g>
<!-- 140168598420560 -->
<g id="node8" class="node">
<title>140168598420560</title>
<ellipse fill="none" stroke="#000000" stroke-width="2" cx="335.0732" cy="-243.8437" rx="70.6878" ry="70.6878"/>
<text text-anchor="middle" x="335.0732" y="-240.1437" font-family="Times,serif" font-size="14.00" fill="#000000">E &#45;&gt; A.=A, {&#39;$&#39;}</text>
</g>
<!-- 140168598419888&#45;&gt;140168598420560 -->
<g id="edge13" class="edge">
<title>140168598419888&#45;&gt;140168598420560</title>
<path fill="none" stroke="#000000" d="M187.4771,-346.108C213.1519,-328.3188 242.3837,-308.0651 268.0212,-290.3017"/>
<polygon fill="#000000" stroke="#000000" points="270.3411,-292.9524 276.5676,-284.3802 266.3545,-287.1986 270.3411,-292.9524"/>
<text text-anchor="middle" x="227.5488" y="-325.6437" font-family="Times,serif" font-size="14.00" fill="#000000">A</text>
</g>
<!-- 140168598438632 -->
<g id="node4" class="node">
<title>140168598438632</title>
<ellipse fill="none" stroke="#000000" stroke-width="2" cx="544.1219" cy="-551.8437" rx="82.0488" ry="82.0488"/>
<text text-anchor="middle" x="544.1219" y="-563.1437" font-family="Times,serif" font-size="14.00" fill="#000000">A &#45;&gt; int+.A, {&#39;=&#39;}</text>
<text text-anchor="middle" x="544.1219" y="-548.1437" font-family="Times,serif" font-size="14.00" fill="#000000">A &#45;&gt; .int+A, {&#39;=&#39;}</text>
<text text-anchor="middle" x="544.1219" y="-533.1437" font-family="Times,serif" font-size="14.00" fill="#000000">A &#45;&gt; .int, {&#39;=&#39;}</text>
</g>
<!-- 140168598419328&#45;&gt;140168598438632 -->
<g id="edge4" class="edge">
<title>140168598419328&#45;&gt;140168598438632</title>
<path fill="none" stroke="#000000" d="M417.3947,-551.8437C428.7062,-551.8437 440.3813,-551.8437 451.8566,-551.8437"/>
<polygon fill="#000000" stroke="#000000" points="451.8754,-555.3438 461.8754,-551.8437 451.8754,-548.3438 451.8754,-555.3438"/>
<text text-anchor="middle" x="439.5975" y="-555.6437" font-family="Times,serif" font-size="14.00" fill="#000000">+</text>
</g>
<!-- 140168598438296 -->
<g id="node5" class="node">
<title>140168598438296</title>
<ellipse fill="none" stroke="#000000" stroke-width="2" cx="759.1707" cy="-590.8437" rx="82.0488" ry="82.0488"/>
<text text-anchor="middle" x="759.1707" y="-594.6437" font-family="Times,serif" font-size="14.00" fill="#000000">A &#45;&gt; int., {&#39;=&#39;}</text>
<text text-anchor="middle" x="759.1707" y="-579.6437" font-family="Times,serif" font-size="14.00" fill="#000000">A &#45;&gt; int.+A, {&#39;=&#39;}</text>
</g>
<!-- 140168598438632&#45;&gt;140168598438296 -->
<g id="edge2" class="edge">
<title>140168598438632&#45;&gt;140168598438296</title>
<path fill="none" stroke="#000000" d="M625.1162,-566.5324C639.24,-569.0938 654.0151,-571.7733 668.3816,-574.3787"/>
<polygon fill="#000000" stroke="#000000" points="667.7853,-577.8276 678.2494,-576.1683 669.0345,-570.94 667.7853,-577.8276"/>
<text text-anchor="middle" x="651.6463" y="-575.6437" font-family="Times,serif" font-size="14.00" fill="#000000">int</text>
</g>
<!-- 140168598438576 -->
<g id="node6" class="node">
<title>140168598438576</title>
<ellipse fill="none" stroke="#000000" stroke-width="2" cx="759.1707" cy="-415.8437" rx="75.2868" ry="75.2868"/>
<text text-anchor="middle" x="759.1707" y="-412.1437" font-family="Times,serif" font-size="14.00" fill="#000000">A &#45;&gt; int+A., {&#39;=&#39;}</text>
</g>
<!-- 140168598438632&#45;&gt;140168598438576 -->
<g id="edge3" class="edge">
<title>140168598438632&#45;&gt;140168598438576</title>
<path fill="none" stroke="#000000" d="M613.6451,-507.8762C637.0337,-493.085 663.1751,-476.5527 686.7789,-461.6253"/>
<polygon fill="#000000" stroke="#000000" points="688.7695,-464.5077 695.3505,-456.2046 685.028,-458.5915 688.7695,-464.5077"/>
<text text-anchor="middle" x="651.6463" y="-491.6437" font-family="Times,serif" font-size="14.00" fill="#000000">A</text>
</g>
<!-- 140168598438296&#45;&gt;140168598438632 -->
<g id="edge1" class="edge">
<title>140168598438296&#45;&gt;140168598438632</title>
<path fill="none" stroke="#000000" d="M683.5215,-558.9333C675.4054,-556.4681 667.1791,-554.3543 659.1463,-552.8437 651.7773,-551.458 644.0955,-550.4572 636.3512,-549.7583"/>
<polygon fill="#000000" stroke="#000000" points="636.386,-546.2514 626.1557,-549.0064 635.8711,-553.2325 636.386,-546.2514"/>
<text text-anchor="middle" x="651.6463" y="-556.6437" font-family="Times,serif" font-size="14.00" fill="#000000">+</text>
</g>
<!-- 140168598421008 -->
<g id="node9" class="node">
<title>140168598421008</title>
<ellipse fill="none" stroke="#000000" stroke-width="2" cx="544.1219" cy="-240.8437" rx="81.135" ry="81.135"/>
<text text-anchor="middle" x="544.1219" y="-252.1437" font-family="Times,serif" font-size="14.00" fill="#000000">E &#45;&gt; A=.A, {&#39;$&#39;}</text>
<text text-anchor="middle" x="544.1219" y="-237.1437" font-family="Times,serif" font-size="14.00" fill="#000000">A &#45;&gt; .int+A, {&#39;$&#39;}</text>
<text text-anchor="middle" x="544.1219" y="-222.1437" font-family="Times,serif" font-size="14.00" fill="#000000">A &#45;&gt; .int, {&#39;$&#39;}</text>
</g>
<!-- 140168598420560&#45;&gt;140168598421008 -->
<g id="edge12" class="edge">
<title>140168598420560&#45;&gt;140168598421008</title>
<path fill="none" stroke="#000000" d="M406.1392,-242.8239C420.9951,-242.6107 436.8591,-242.383 452.3442,-242.1608"/>
<polygon fill="#000000" stroke="#000000" points="452.5023,-245.659 462.451,-242.0158 452.4017,-238.6597 452.5023,-245.659"/>
<text text-anchor="middle" x="439.5975" y="-245.6437" font-family="Times,serif" font-size="14.00" fill="#000000">=</text>
</g>
<!-- 140168598420616 -->
<g id="node10" class="node">
<title>140168598420616</title>
<ellipse fill="none" stroke="#000000" stroke-width="2" cx="759.1707" cy="-240.8437" rx="81.135" ry="81.135"/>
<text text-anchor="middle" x="759.1707" y="-244.6437" font-family="Times,serif" font-size="14.00" fill="#000000">A &#45;&gt; int., {&#39;$&#39;}</text>
<text text-anchor="middle" x="759.1707" y="-229.6437" font-family="Times,serif" font-size="14.00" fill="#000000">A &#45;&gt; int.+A, {&#39;$&#39;}</text>
</g>
<!-- 140168598421008&#45;&gt;140168598420616 -->
<g id="edge10" class="edge">
<title>140168598421008&#45;&gt;140168598420616</title>
<path fill="none" stroke="#000000" d="M625.7293,-240.8437C639.4019,-240.8437 653.669,-240.8437 667.5728,-240.8437"/>
<polygon fill="#000000" stroke="#000000" points="667.6191,-244.3438 677.6191,-240.8437 667.619,-237.3438 667.6191,-244.3438"/>
<text text-anchor="middle" x="651.6463" y="-244.6437" font-family="Times,serif" font-size="14.00" fill="#000000">int</text>
</g>
<!-- 140168598420952 -->
<g id="node13" class="node">
<title>140168598420952</title>
<ellipse fill="none" stroke="#000000" stroke-width="2" cx="759.1707" cy="-70.8437" rx="70.6878" ry="70.6878"/>
<text text-anchor="middle" x="759.1707" y="-67.1437" font-family="Times,serif" font-size="14.00" fill="#000000">E &#45;&gt; A=A., {&#39;$&#39;}</text>
</g>
<!-- 140168598421008&#45;&gt;140168598420952 -->
<g id="edge11" class="edge">
<title>140168598421008&#45;&gt;140168598420952</title>
<path fill="none" stroke="#000000" d="M608.0614,-190.2984C635.6695,-168.4737 667.8922,-143.001 695.4732,-121.1977"/>
<polygon fill="#000000" stroke="#000000" points="697.8221,-123.8025 703.4964,-114.8553 693.481,-118.3111 697.8221,-123.8025"/>
<text text-anchor="middle" x="651.6463" y="-165.6437" font-family="Times,serif" font-size="14.00" fill="#000000">A</text>
</g>
<!-- 140168598421344 -->
<g id="node11" class="node">
<title>140168598421344</title>
<ellipse fill="none" stroke="#000000" stroke-width="2" cx="973.5124" cy="-240.8437" rx="81.135" ry="81.135"/>
<text text-anchor="middle" x="973.5124" y="-252.1437" font-family="Times,serif" font-size="14.00" fill="#000000">A &#45;&gt; int+.A, {&#39;$&#39;}</text>
<text text-anchor="middle" x="973.5124" y="-237.1437" font-family="Times,serif" font-size="14.00" fill="#000000">A &#45;&gt; .int+A, {&#39;$&#39;}</text>
<text text-anchor="middle" x="973.5124" y="-222.1437" font-family="Times,serif" font-size="14.00" fill="#000000">A &#45;&gt; .int, {&#39;$&#39;}</text>
</g>
<!-- 140168598420616&#45;&gt;140168598421344 -->
<g id="edge9" class="edge">
<title>140168598420616&#45;&gt;140168598421344</title>
<path fill="none" stroke="#000000" d="M840.5097,-240.8437C853.9107,-240.8437 867.8847,-240.8437 881.5239,-240.8437"/>
<polygon fill="#000000" stroke="#000000" points="881.8735,-244.3438 891.8735,-240.8437 881.8735,-237.3438 881.8735,-244.3438"/>
<text text-anchor="middle" x="866.6951" y="-244.6437" font-family="Times,serif" font-size="14.00" fill="#000000">+</text>
</g>
<!-- 140168598421344&#45;&gt;140168598420616 -->
<g id="edge7" class="edge">
<title>140168598421344&#45;&gt;140168598420616</title>
<path fill="none" stroke="#000000" d="M893.7263,-225.1C887.1383,-224.1916 880.5655,-223.4163 874.1951,-222.8437 865.9475,-222.1024 857.3938,-222.0593 848.8433,-222.51"/>
<polygon fill="#000000" stroke="#000000" points="848.539,-219.0229 838.8256,-223.2536 849.0573,-226.0037 848.539,-219.0229"/>
<text text-anchor="middle" x="866.6951" y="-226.6437" font-family="Times,serif" font-size="14.00" fill="#000000">int</text>
</g>
<!-- 140168598437960 -->
<g id="node12" class="node">
<title>140168598437960</title>
<ellipse fill="none" stroke="#000000" stroke-width="2" cx="1175.573" cy="-240.8437" rx="74.9875" ry="74.9875"/>
<text text-anchor="middle" x="1175.573" y="-237.1437" font-family="Times,serif" font-size="14.00" fill="#000000">A &#45;&gt; int+A., {&#39;$&#39;}</text>
</g>
<!-- 140168598421344&#45;&gt;140168598437960 -->
<g id="edge8" class="edge">
<title>140168598421344&#45;&gt;140168598437960</title>
<path fill="none" stroke="#000000" d="M1055.1157,-240.8437C1066.7216,-240.8437 1078.6829,-240.8437 1090.3555,-240.8437"/>
<polygon fill="#000000" stroke="#000000" points="1090.5227,-244.3438 1100.5227,-240.8437 1090.5226,-237.3438 1090.5227,-244.3438"/>
<text text-anchor="middle" x="1077.8297" y="-244.6437" font-family="Times,serif" font-size="14.00" fill="#000000">A</text>
</g>
</g>
</svg>
