<?xml version="1.0" encoding="UTF-8" standalone="no"?>
<!DOCTYPE svg PUBLIC "-//W3C//DTD SVG 1.1//EN"
 "http://www.w3.org/Graphics/SVG/1.1/DTD/svg11.dtd">
<!-- Generated by graphviz version 2.40.1 (20161225.0304)
 -->
<!-- Title: G Pages: 1 -->
<svg width="717pt" height="468pt"
 viewBox="7.20 7.20 709.32 461.29" xmlns="http://www.w3.org/2000/svg" xmlns:xlink="http://www.w3.org/1999/xlink">
<g id="graph0" class="graph" transform="scale(1 1) rotate(0) translate(11.2 457.29)">
<title>G</title>
<polygon fill="#ffffff" stroke="transparent" points="-4,4 -4,-450.09 698.1169,-450.09 698.1169,4 -4,4"/>
<!-- start -->
<g id="node1" class="node">
<title>start</title>
</g>
<!-- 140001860952696 -->
<g id="node2" class="node">
<title>140001860952696</title>
<ellipse fill="none" stroke="#000000" stroke-width="2" cx="101.6396" cy="-169.5952" rx="63.7795" ry="63.7795"/>
<text text-anchor="middle" x="101.6396" y="-195.8952" font-family="Times,serif" font-size="14.00" fill="#000000">E &#45;&gt; .A=A, </text>
<text text-anchor="middle" x="101.6396" y="-180.8952" font-family="Times,serif" font-size="14.00" fill="#000000">A &#45;&gt; .int, </text>
<text text-anchor="middle" x="101.6396" y="-165.8952" font-family="Times,serif" font-size="14.00" fill="#000000">A &#45;&gt; .int+A, </text>
<text text-anchor="middle" x="101.6396" y="-150.8952" font-family="Times,serif" font-size="14.00" fill="#000000">S&#39; &#45;&gt; .E, </text>
<text text-anchor="middle" x="101.6396" y="-135.8952" font-family="Times,serif" font-size="14.00" fill="#000000">E &#45;&gt; .int, </text>
</g>
<!-- start&#45;&gt;140001860952696 -->
<g id="edge11" class="edge">
<title>start&#45;&gt;140001860952696</title>
<path fill="none" stroke="#000000" stroke-dasharray="5,2" d="M1.1459,-169.5952C3.7993,-169.5952 14.3539,-169.5952 27.6902,-169.5952"/>
<polygon fill="#000000" stroke="#000000" points="27.8195,-173.0953 37.8195,-169.5952 27.8194,-166.0953 27.8195,-173.0953"/>
</g>
<!-- 140001860953144 -->
<g id="node3" class="node">
<title>140001860953144</title>
<ellipse fill="none" stroke="#000000" stroke-width="2" cx="279.9188" cy="-294.5952" rx="63.7795" ry="63.7795"/>
<text text-anchor="middle" x="279.9188" y="-305.8952" font-family="Times,serif" font-size="14.00" fill="#000000">A &#45;&gt; int.+A, </text>
<text text-anchor="middle" x="279.9188" y="-290.8952" font-family="Times,serif" font-size="14.00" fill="#000000">A &#45;&gt; int., </text>
<text text-anchor="middle" x="279.9188" y="-275.8952" font-family="Times,serif" font-size="14.00" fill="#000000">E &#45;&gt; int., </text>
</g>
<!-- 140001860952696&#45;&gt;140001860953144 -->
<g id="edge5" class="edge">
<title>140001860952696&#45;&gt;140001860953144</title>
<path fill="none" stroke="#000000" d="M154.165,-206.4232C174.6574,-220.7914 198.2746,-237.3505 219.4695,-252.2112"/>
<polygon fill="#000000" stroke="#000000" points="217.5716,-255.1551 227.7689,-258.0303 221.5903,-249.4236 217.5716,-255.1551"/>
<text text-anchor="middle" x="190.7792" y="-240.3952" font-family="Times,serif" font-size="14.00" fill="#000000">int</text>
</g>
<!-- 140001860953256 -->
<g id="node7" class="node">
<title>140001860953256</title>
<ellipse fill="none" stroke="#000000" stroke-width="2" cx="279.9188" cy="-169.5952" rx="42.7926" ry="42.7926"/>
<text text-anchor="middle" x="279.9188" y="-165.8952" font-family="Times,serif" font-size="14.00" fill="#000000">S&#39; &#45;&gt; E., </text>
</g>
<!-- 140001860952696&#45;&gt;140001860953256 -->
<g id="edge6" class="edge">
<title>140001860952696&#45;&gt;140001860953256</title>
<path fill="none" stroke="#000000" d="M165.4989,-169.5952C185.5709,-169.5952 207.5071,-169.5952 226.7544,-169.5952"/>
<polygon fill="#000000" stroke="#000000" points="226.845,-173.0953 236.845,-169.5952 226.845,-166.0953 226.845,-173.0953"/>
<text text-anchor="middle" x="190.7792" y="-173.3952" font-family="Times,serif" font-size="14.00" fill="#000000">E</text>
</g>
<!-- 140001860953368 -->
<g id="node8" class="node">
<title>140001860953368</title>
<ellipse fill="none" stroke="#000000" stroke-width="2" cx="279.9188" cy="-54.5952" rx="54.6905" ry="54.6905"/>
<text text-anchor="middle" x="279.9188" y="-50.8952" font-family="Times,serif" font-size="14.00" fill="#000000">E &#45;&gt; A.=A, </text>
</g>
<!-- 140001860952696&#45;&gt;140001860953368 -->
<g id="edge10" class="edge">
<title>140001860952696&#45;&gt;140001860953368</title>
<path fill="none" stroke="#000000" d="M155.1293,-135.0914C177.3129,-120.7817 203.0234,-104.197 225.3222,-89.813"/>
<polygon fill="#000000" stroke="#000000" points="227.4995,-92.5736 234.0057,-84.2117 223.7051,-86.6912 227.4995,-92.5736"/>
<text text-anchor="middle" x="190.7792" y="-119.3952" font-family="Times,serif" font-size="14.00" fill="#000000">A</text>
</g>
<!-- 140001860953984 -->
<g id="node4" class="node">
<title>140001860953984</title>
<ellipse fill="none" stroke="#000000" stroke-width="2" cx="452.1981" cy="-291.5952" rx="63.7795" ry="63.7795"/>
<text text-anchor="middle" x="452.1981" y="-302.8952" font-family="Times,serif" font-size="14.00" fill="#000000">A &#45;&gt; .int+A, </text>
<text text-anchor="middle" x="452.1981" y="-287.8952" font-family="Times,serif" font-size="14.00" fill="#000000">A &#45;&gt; int+.A, </text>
<text text-anchor="middle" x="452.1981" y="-272.8952" font-family="Times,serif" font-size="14.00" fill="#000000">A &#45;&gt; .int, </text>
</g>
<!-- 140001860953144&#45;&gt;140001860953984 -->
<g id="edge4" class="edge">
<title>140001860953144&#45;&gt;140001860953984</title>
<path fill="none" stroke="#000000" d="M343.5798,-293.4866C354.9224,-293.2891 366.8242,-293.0818 378.4207,-292.8799"/>
<polygon fill="#000000" stroke="#000000" points="378.5738,-296.3778 388.5113,-292.7042 378.4518,-289.3789 378.5738,-296.3778"/>
<text text-anchor="middle" x="366.0584" y="-296.3952" font-family="Times,serif" font-size="14.00" fill="#000000">+</text>
</g>
<!-- 140001860953760 -->
<g id="node5" class="node">
<title>140001860953760</title>
<ellipse fill="none" stroke="#000000" stroke-width="2" cx="630.4773" cy="-247.5952" rx="63.7795" ry="63.7795"/>
<text text-anchor="middle" x="630.4773" y="-251.3952" font-family="Times,serif" font-size="14.00" fill="#000000">A &#45;&gt; int.+A, </text>
<text text-anchor="middle" x="630.4773" y="-236.3952" font-family="Times,serif" font-size="14.00" fill="#000000">A &#45;&gt; int., </text>
</g>
<!-- 140001860953984&#45;&gt;140001860953760 -->
<g id="edge2" class="edge">
<title>140001860953984&#45;&gt;140001860953760</title>
<path fill="none" stroke="#000000" d="M507.0812,-259.1571C515.7838,-255.2602 524.8756,-251.8637 533.8377,-249.5952 541.1336,-247.7484 548.8391,-246.4873 556.5868,-245.6633"/>
<polygon fill="#000000" stroke="#000000" points="557.0887,-249.1338 566.7653,-244.8195 556.5103,-242.1577 557.0887,-249.1338"/>
<text text-anchor="middle" x="541.3377" y="-253.3952" font-family="Times,serif" font-size="14.00" fill="#000000">int</text>
</g>
<!-- 140001860954040 -->
<g id="node6" class="node">
<title>140001860954040</title>
<ellipse fill="none" stroke="#000000" stroke-width="2" cx="630.4773" cy="-387.5952" rx="58.4896" ry="58.4896"/>
<text text-anchor="middle" x="630.4773" y="-383.8952" font-family="Times,serif" font-size="14.00" fill="#000000">A &#45;&gt; int+A., </text>
</g>
<!-- 140001860953984&#45;&gt;140001860954040 -->
<g id="edge3" class="edge">
<title>140001860953984&#45;&gt;140001860954040</title>
<path fill="none" stroke="#000000" d="M508.6067,-321.9702C528.1572,-332.4977 550.147,-344.3388 570.0108,-355.0351"/>
<polygon fill="#000000" stroke="#000000" points="568.5073,-358.2006 578.9714,-359.8602 571.8261,-352.0374 568.5073,-358.2006"/>
<text text-anchor="middle" x="541.3377" y="-345.3952" font-family="Times,serif" font-size="14.00" fill="#000000">A</text>
</g>
<!-- 140001860953760&#45;&gt;140001860953984 -->
<g id="edge1" class="edge">
<title>140001860953760&#45;&gt;140001860953984</title>
<path fill="none" stroke="#000000" d="M568.4318,-262.9082C554.1229,-266.4397 538.7847,-270.2252 524.0959,-273.8505"/>
<polygon fill="#000000" stroke="#000000" points="522.9211,-270.5353 514.0511,-276.3296 524.5985,-277.3314 522.9211,-270.5353"/>
<text text-anchor="middle" x="541.3377" y="-275.3952" font-family="Times,serif" font-size="14.00" fill="#000000">+</text>
</g>
<!-- 140001860953480 -->
<g id="node9" class="node">
<title>140001860953480</title>
<ellipse fill="none" stroke="#000000" stroke-width="2" cx="452.1981" cy="-103.5952" rx="63.7795" ry="63.7795"/>
<text text-anchor="middle" x="452.1981" y="-114.8952" font-family="Times,serif" font-size="14.00" fill="#000000">A &#45;&gt; .int+A, </text>
<text text-anchor="middle" x="452.1981" y="-99.8952" font-family="Times,serif" font-size="14.00" fill="#000000">A &#45;&gt; .int, </text>
<text text-anchor="middle" x="452.1981" y="-84.8952" font-family="Times,serif" font-size="14.00" fill="#000000">E &#45;&gt; A=.A, </text>
</g>
<!-- 140001860953368&#45;&gt;140001860953480 -->
<g id="edge9" class="edge">
<title>140001860953368&#45;&gt;140001860953480</title>
<path fill="none" stroke="#000000" d="M332.5444,-69.563C347.7863,-73.8982 364.6868,-78.705 380.8684,-83.3074"/>
<polygon fill="#000000" stroke="#000000" points="380.2536,-86.7713 390.8296,-86.1406 382.1686,-80.0383 380.2536,-86.7713"/>
<text text-anchor="middle" x="366.0584" y="-83.3952" font-family="Times,serif" font-size="14.00" fill="#000000">=</text>
</g>
<!-- 140001860953480&#45;&gt;140001860953760 -->
<g id="edge7" class="edge">
<title>140001860953480&#45;&gt;140001860953760</title>
<path fill="none" stroke="#000000" d="M501.8588,-143.7072C523.8858,-161.4989 549.9434,-182.5462 572.8248,-201.028"/>
<polygon fill="#000000" stroke="#000000" points="570.7954,-203.888 580.774,-207.4487 575.1939,-198.4424 570.7954,-203.888"/>
<text text-anchor="middle" x="541.3377" y="-184.3952" font-family="Times,serif" font-size="14.00" fill="#000000">int</text>
</g>
<!-- 140001860953872 -->
<g id="node10" class="node">
<title>140001860953872</title>
<ellipse fill="none" stroke="#000000" stroke-width="2" cx="630.4773" cy="-103.5952" rx="54.6905" ry="54.6905"/>
<text text-anchor="middle" x="630.4773" y="-99.8952" font-family="Times,serif" font-size="14.00" fill="#000000">E &#45;&gt; A=A., </text>
</g>
<!-- 140001860953480&#45;&gt;140001860953872 -->
<g id="edge8" class="edge">
<title>140001860953480&#45;&gt;140001860953872</title>
<path fill="none" stroke="#000000" d="M516.0574,-103.5952C532.0395,-103.5952 549.2036,-103.5952 565.2512,-103.5952"/>
<polygon fill="#000000" stroke="#000000" points="565.6118,-107.0953 575.6118,-103.5952 565.6117,-100.0953 565.6118,-107.0953"/>
<text text-anchor="middle" x="541.3377" y="-107.3952" font-family="Times,serif" font-size="14.00" fill="#000000">A</text>
</g>
</g>
</svg>
